<svg aria-hidden="true" style="position: absolute; width: 0; height: 0; overflow: hidden;" version="1.1" xmlns="http://www.w3.org/2000/svg" xmlns:xlink="http://www.w3.org/1999/xlink">
<defs>
<symbol id="icon-vector-before" viewBox="0 0 12 32">
<path d="M1.747 0.502c1.165-0.318 2.409-0.489 3.598-0.175 0.89 0.235 1.741 0.731 2.258 1.511 0.437 0.656 0.62 1.463 0.501 2.242-0.135 0.906-0.648 1.654-1.276 2.298-1.344 1.375-3.101 2.242-4.52 3.53-1.503 1.363-2.707 3.498-2.031 5.573 0.604 1.856 2.516 2.91 4.118 3.792 1.344 0.735 2.723 1.427 3.999 2.282 1.189 0.799 2.469 1.844 2.846 3.295 0.465 1.805-0.779 3.51-2.202 4.48-1.805 1.228-4.047 1.813-6.197 2-1.109 0.095-2.23 0.103-3.339 0.036-1.117-0.068-2.226-0.155-3.331-0.354-0.517-0.095-1.030-0.207-1.542-0.326-0.274-0.064-0.39 0.366-0.115 0.421 1.113 0.219 2.238 0.413 3.359 0.584 1.129 0.171 2.258 0.266 3.403 0.27 2.278 0.008 4.587-0.405 6.662-1.371 1.844-0.859 3.625-2.329 3.9-4.472 0.207-1.59-0.704-2.962-1.848-3.971-1.2-1.065-2.632-1.829-4.035-2.588-0.751-0.405-1.511-0.811-2.246-1.244-0.839-0.493-1.666-1.049-2.294-1.801-0.688-0.823-0.954-1.864-0.771-2.918 0.187-1.073 0.743-2.027 1.479-2.818 1.344-1.447 3.16-2.325 4.615-3.641 0.704-0.636 1.344-1.395 1.654-2.306 0.266-0.787 0.262-1.654-0.052-2.425-0.322-0.791-0.922-1.435-1.666-1.844-0.986-0.537-2.163-0.644-3.26-0.509-0.572 0.072-1.133 0.211-1.677 0.402-0.036 0.008-0.020 0.060 0.012 0.048z"></path>
</symbol>
<symbol id="icon-vector-after" viewBox="0 0 15 32">
<path d="M2.367 23.35c-0.75 0.712-1.335 1.531-1.757 2.476-0.422 0.939-0.724 1.902-0.567 2.935 0.315 2.079 2.343 3.364 4.372 3.181 2.11-0.195 3.88-1.619 5.102-3.269 1.146-1.55 1.82-3.452 1.871-5.38 0.063-2.142-0.718-4.069-1.921-5.808-0.643-0.932-1.373-1.814-1.946-2.791-0.504-0.857-0.863-1.795-1.058-2.778-0.372-1.915-0.032-3.937 0.894-5.644 0.92-1.694 2.375-3.043 4.044-3.987 3.162-1.795 7.313-2.217 10.513-0.283 0.409 0.246 0.794 0.517 1.159 0.825 0.353 0.302 0.876-0.208 0.517-0.517-2.816-2.469-6.835-2.841-10.299-1.676-3.572 1.203-6.728 4.025-7.515 7.824-0.391 1.89-0.17 3.849 0.605 5.613 0.888 2.022 2.57 3.572 3.528 5.562 1.707 3.546 0.447 7.855-2.507 10.318-1.587 1.323-4.082 1.997-5.82 0.548-0.844-0.699-1.172-1.732-1.172-2.809 0.006-1.083 0.46-2.091 1.002-3.011 0.277-0.466 0.617-0.895 0.983-1.298 0.019-0.025-0.006-0.050-0.025-0.032z"></path>
</symbol>
</defs>
</svg>
