<svg aria-hidden="true" style="position: absolute; width: 0; height: 0; overflow: hidden;" version="1.1" xmlns="http://www.w3.org/2000/svg" xmlns:xlink="http://www.w3.org/1999/xlink">
<defs>
<symbol id="icon-instagram-icon" viewBox="0 0 32 32">
<path d="M16 2.881c4.275 0 4.781 0.019 6.462 0.094 1.563 0.069 2.406 0.331 2.969 0.55 0.744 0.288 1.281 0.638 1.837 1.194 0.563 0.563 0.906 1.094 1.194 1.838 0.219 0.563 0.481 1.412 0.55 2.969 0.075 1.688 0.094 2.194 0.094 6.463 0 4.275-0.019 4.781-0.094 6.463-0.069 1.563-0.331 2.406-0.55 2.969-0.288 0.744-0.637 1.281-1.194 1.837-0.563 0.563-1.094 0.906-1.837 1.194-0.563 0.219-1.413 0.481-2.969 0.55-1.688 0.075-2.194 0.094-6.463 0.094-4.275 0-4.781-0.019-6.463-0.094-1.563-0.069-2.406-0.331-2.969-0.55-0.744-0.288-1.281-0.637-1.838-1.194-0.563-0.563-0.906-1.094-1.194-1.837-0.219-0.563-0.481-1.413-0.55-2.969-0.075-1.688-0.094-2.194-0.094-6.463 0-4.275 0.019-4.781 0.094-6.463 0.069-1.563 0.331-2.406 0.55-2.969 0.288-0.744 0.638-1.281 1.194-1.838 0.563-0.563 1.094-0.906 1.838-1.194 0.563-0.219 1.412-0.481 2.969-0.55 1.681-0.075 2.188-0.094 6.463-0.094zM16 0c-4.344 0-4.887 0.019-6.594 0.094-1.7 0.075-2.869 0.35-3.881 0.744-1.056 0.412-1.95 0.956-2.837 1.85-0.894 0.888-1.438 1.781-1.85 2.831-0.394 1.019-0.669 2.181-0.744 3.881-0.075 1.713-0.094 2.256-0.094 6.6s0.019 4.887 0.094 6.594c0.075 1.7 0.35 2.869 0.744 3.881 0.413 1.056 0.956 1.95 1.85 2.837 0.887 0.887 1.781 1.438 2.831 1.844 1.019 0.394 2.181 0.669 3.881 0.744 1.706 0.075 2.25 0.094 6.594 0.094s4.887-0.019 6.594-0.094c1.7-0.075 2.869-0.35 3.881-0.744 1.050-0.406 1.944-0.956 2.831-1.844s1.438-1.781 1.844-2.831c0.394-1.019 0.669-2.181 0.744-3.881 0.075-1.706 0.094-2.25 0.094-6.594s-0.019-4.887-0.094-6.594c-0.075-1.7-0.35-2.869-0.744-3.881-0.394-1.063-0.938-1.956-1.831-2.844-0.887-0.887-1.781-1.438-2.831-1.844-1.019-0.394-2.181-0.669-3.881-0.744-1.712-0.081-2.256-0.1-6.6-0.1z"></path>
<path d="M16 7.781c-4.537 0-8.219 3.681-8.219 8.219s3.681 8.219 8.219 8.219c4.538 0 8.219-3.681 8.219-8.219s-3.681-8.219-8.219-8.219zM16 21.331c-2.944 0-5.331-2.387-5.331-5.331s2.388-5.331 5.331-5.331c2.944 0 5.331 2.388 5.331 5.331s-2.387 5.331-5.331 5.331z"></path>
<path d="M26.462 7.456c0 1.063-0.863 1.919-1.919 1.919-1.063 0-1.919-0.863-1.919-1.919 0-1.063 0.863-1.919 1.919-1.919s1.919 0.862 1.919 1.919z"></path>
</symbol>
<symbol id="icon-facebook-icon" viewBox="0 0 32 32">
<path fill="#1f392c" style="fill: var(--color1, #1f392c)" d="M32 16c0-8.837-7.163-16-16-16s-16 7.163-16 16c0 7.986 5.851 14.605 13.5 15.806v-11.181h-4.063v-4.625h4.063v-3.525c0-4.010 2.389-6.225 6.043-6.225 1.75 0 3.582 0.313 3.582 0.313v3.938h-2.017c-1.988 0-2.608 1.233-2.608 2.5v3h4.438l-0.709 4.625h-3.728v11.181c7.649-1.2 13.5-7.82 13.5-15.806z"></path>
<path fill="#fff" style="fill: var(--color2, #fff)" d="M22.228 20.625l0.709-4.625h-4.438v-3c0-1.265 0.62-2.5 2.608-2.5h2.017v-3.938c0 0-1.831-0.313-3.582-0.313-3.655 0-6.043 2.215-6.043 6.225v3.525h-4.063v4.625h4.063v11.181c1.657 0.259 3.343 0.259 5 0v-11.181h3.728z"></path>
</symbol>
<symbol id="icon-linkedin-icon" viewBox="0 0 32 32">
<path d="M29.638 0h-27.276c-0.627 0-1.227 0.249-1.67 0.692s-0.692 1.044-0.692 1.67v27.276c0 0.627 0.249 1.227 0.692 1.67s1.044 0.692 1.67 0.692h27.276c0.627 0 1.227-0.249 1.67-0.692s0.692-1.044 0.692-1.67v-27.276c0-0.627-0.249-1.227-0.692-1.67s-1.044-0.692-1.67-0.692zM9.538 27.26h-4.811v-15.282h4.811v15.282zM7.129 9.86c-0.546-0.003-1.078-0.168-1.531-0.473s-0.804-0.738-1.010-1.243c-0.207-0.505-0.259-1.060-0.15-1.595s0.373-1.026 0.76-1.41c0.387-0.385 0.88-0.646 1.415-0.751s1.090-0.049 1.594 0.161c0.504 0.21 0.934 0.564 1.237 1.018s0.464 0.988 0.463 1.534c0.005 0.365-0.063 0.728-0.201 1.066s-0.343 0.645-0.602 0.903c-0.259 0.258-0.568 0.46-0.907 0.596s-0.702 0.202-1.068 0.194zM27.271 27.273h-4.809v-8.349c0-2.462-1.047-3.222-2.398-3.222-1.427 0-2.827 1.076-2.827 3.285v8.287h-4.811v-15.284h4.627v2.118h0.062c0.464-0.94 2.091-2.547 4.573-2.547 2.684 0 5.584 1.593 5.584 6.26l-0.002 9.453z"></path>
</symbol>
</defs>
</svg>
